<?xml version="1.0" ?><!-- Uploaded to: SVG Repo, www.svgrepo.com, Generator: SVG Repo Mixer Tools -->
<svg width="800px" height="800px" viewBox="0 0 64 64" data-name="Lovely Valentine's day" id="Lovely_Valentine_s_day" xmlns="http://www.w3.org/2000/svg"><defs><style>.cls-1{fill:#e29e9a;}.cls-2{fill:#268484;}.cls-3{fill:#623905;}.cls-4{fill:#2c9ea5;}.cls-5{fill:#cf5181;}.cls-6{fill:#f6e3a6;}</style></defs><title/><circle class="cls-1" cx="32" cy="32" r="28"/><polygon class="cls-2" points="40.278 25.861 32.767 46.14 30.162 46.14 22.651 25.861 40.278 25.861"/><path class="cls-3" d="M33.463,47.14h-4L21.214,24.861h20.5Zm-2.605-2H32.07l6.772-18.279H24.087Z"/><path class="cls-4" d="M26.379,28.88H36.55L32.268,40.441a.856.856,0,0,1-1.606,0Z"/><path class="cls-5" d="M30.813,16.053a1.951,1.951,0,0,1-1.953,1.953,1.954,1.954,0,0,1-3.907,0,1.954,1.954,0,0,1,0-3.907,1.954,1.954,0,0,1,3.907,0A1.951,1.951,0,0,1,30.813,16.053Z"/><path class="cls-3" d="M26.906,20.959a2.957,2.957,0,0,1-2.822-2.084,2.953,2.953,0,0,1,0-5.645,2.954,2.954,0,0,1,5.645,0,2.954,2.954,0,0,1,0,5.646A2.958,2.958,0,0,1,26.906,20.959ZM24.953,15.1a.954.954,0,0,0,0,1.907h1v1a.954.954,0,0,0,1.907,0v-1h1a.954.954,0,0,0,0-1.907h-1v-1a.954.954,0,0,0-1.907,0v1Z"/><path class="cls-1" d="M39.813,16.053a1.951,1.951,0,0,1-1.953,1.953,1.954,1.954,0,0,1-3.907,0,1.954,1.954,0,0,1,0-3.907,1.954,1.954,0,0,1,3.907,0A1.951,1.951,0,0,1,39.813,16.053Z"/><path class="cls-3" d="M35.906,20.959a2.957,2.957,0,0,1-2.822-2.084,2.953,2.953,0,0,1,0-5.645,2.954,2.954,0,0,1,5.645,0,2.954,2.954,0,0,1,0,5.646A2.958,2.958,0,0,1,35.906,20.959ZM33.953,15.1a.954.954,0,0,0,0,1.907h1v1a.954.954,0,0,0,1.907,0v-1h1a.954.954,0,0,0,0-1.907h-1v-1a.954.954,0,0,0-1.907,0v1Z"/><path class="cls-5" d="M34.813,22.053a1.951,1.951,0,0,1-1.953,1.953,1.954,1.954,0,0,1-3.907,0,1.954,1.954,0,0,1,0-3.907,1.954,1.954,0,0,1,3.907,0A1.951,1.951,0,0,1,34.813,22.053Z"/><path class="cls-3" d="M30.906,26.959a2.957,2.957,0,0,1-2.822-2.084,2.953,2.953,0,0,1,0-5.645,2.954,2.954,0,0,1,5.645,0,2.954,2.954,0,0,1,0,5.646A2.958,2.958,0,0,1,30.906,26.959ZM28.953,21.1a.954.954,0,0,0,0,1.907h1v1a.954.954,0,0,0,1.907,0v-1h1a.954.954,0,0,0,0-1.907h-1v-1a.954.954,0,0,0-1.907,0v1Z"/><path class="cls-6" d="M30.813,28.053a1.951,1.951,0,0,1-1.953,1.953,1.954,1.954,0,0,1-3.907,0,1.954,1.954,0,0,1,0-3.907,1.954,1.954,0,0,1,3.907,0A1.951,1.951,0,0,1,30.813,28.053Z"/><path class="cls-3" d="M26.906,32.959a2.957,2.957,0,0,1-2.822-2.084,2.953,2.953,0,0,1,0-5.645,2.954,2.954,0,0,1,5.645,0,2.954,2.954,0,0,1,0,5.646A2.958,2.958,0,0,1,26.906,32.959ZM24.953,27.1a.954.954,0,0,0,0,1.907h1v1a.954.954,0,0,0,1.907,0v-1h1a.954.954,0,0,0,0-1.907h-1v-1a.954.954,0,0,0-1.907,0v1Z"/><path class="cls-1" d="M39.813,28.053a1.951,1.951,0,0,1-1.953,1.953,1.954,1.954,0,0,1-3.907,0,1.954,1.954,0,0,1,0-3.907,1.954,1.954,0,0,1,3.907,0A1.951,1.951,0,0,1,39.813,28.053Z"/><path class="cls-3" d="M35.906,32.959a2.957,2.957,0,0,1-2.822-2.084,2.953,2.953,0,0,1,0-5.645,2.954,2.954,0,0,1,5.645,0,2.954,2.954,0,0,1,0,5.646A2.958,2.958,0,0,1,35.906,32.959ZM33.953,27.1a.954.954,0,0,0,0,1.907h1v1a.954.954,0,0,0,1.907,0v-1h1a.954.954,0,0,0,0-1.907h-1v-1a.954.954,0,0,0-1.907,0v1Z"/><path class="cls-6" d="M43.813,22.053a1.951,1.951,0,0,1-1.953,1.953,1.954,1.954,0,0,1-3.907,0,1.954,1.954,0,0,1,0-3.907,1.954,1.954,0,0,1,3.907,0A1.951,1.951,0,0,1,43.813,22.053Z"/><path class="cls-3" d="M39.906,26.959a2.957,2.957,0,0,1-2.822-2.084,2.953,2.953,0,0,1,0-5.645,2.954,2.954,0,0,1,5.645,0,2.954,2.954,0,0,1,0,5.646A2.958,2.958,0,0,1,39.906,26.959ZM37.953,21.1a.954.954,0,0,0,0,1.907h1v1a.954.954,0,0,0,1.907,0v-1h1a.954.954,0,0,0,0-1.907h-1v-1a.954.954,0,0,0-1.907,0v1Z"/><path class="cls-1" d="M26.813,22.053a1.951,1.951,0,0,1-1.953,1.953,1.954,1.954,0,0,1-3.907,0,1.954,1.954,0,0,1,0-3.907,1.954,1.954,0,0,1,3.907,0A1.951,1.951,0,0,1,26.813,22.053Z"/><path class="cls-3" d="M22.906,26.959a2.957,2.957,0,0,1-2.822-2.084,2.953,2.953,0,0,1,0-5.645,2.954,2.954,0,0,1,5.645,0,2.954,2.954,0,0,1,0,5.646A2.958,2.958,0,0,1,22.906,26.959ZM20.953,21.1a.954.954,0,0,0,0,1.907h1v1a.954.954,0,0,0,1.907,0v-1h1a.954.954,0,0,0,0-1.907h-1v-1a.954.954,0,0,0-1.907,0v1Z"/><path class="cls-2" d="M30.117,46.14H33a0,0,0,0,1,0,0V51a1,1,0,0,1-1,1h-.883a1,1,0,0,1-1-1V46.14A0,0,0,0,1,30.117,46.14Z"/><path class="cls-3" d="M32,53h-.883a2,2,0,0,1-2-2V45.14H34V51A2,2,0,0,1,32,53Zm-.883-5.86V51H32l0-3.86Z"/><path class="cls-5" d="M17.414,35.414a2.828,2.828,0,0,1-4-4C14.519,30.31,18.519,34.31,17.414,35.414Z"/><path class="cls-3" d="M15.414,37.24a3.826,3.826,0,0,1-2.707-6.533c.947-.949,2.573-.5,4.242,1.171s2.119,3.3,1.172,4.243A3.816,3.816,0,0,1,15.414,37.24Zm-1.4-5a1.828,1.828,0,0,0,2.576,2.576,4.1,4.1,0,0,0-1.055-1.521A4.111,4.111,0,0,0,14.014,32.238Z"/><path class="cls-5" d="M48.243,13.414a2.828,2.828,0,0,1-4,4C43.138,16.31,47.138,12.31,48.243,13.414Z"/><path class="cls-3" d="M46.242,19.24a3.824,3.824,0,0,1-2.707-1.118c-.947-.948-.5-2.574,1.172-4.244s3.3-2.12,4.242-1.171a3.826,3.826,0,0,1-2.707,6.533Zm-1.176-2.426a1.829,1.829,0,0,0,2.577-2.576,4.1,4.1,0,0,0-1.522,1.055A4.119,4.119,0,0,0,45.066,16.814Zm2.469-2.693v0h0Z"/><path class="cls-6" d="M47.243,42.586a2.828,2.828,0,0,1,4,4C50.138,47.69,46.138,43.69,47.243,42.586Z"/><path class="cls-3" d="M50.746,47.782a4.735,4.735,0,0,1-3.039-1.661,6.829,6.829,0,0,1-1.369-1.869,1.951,1.951,0,0,1,.2-2.373h0a3.828,3.828,0,1,1,5.414,5.414A1.644,1.644,0,0,1,50.746,47.782Zm-2.68-4.595a5.206,5.206,0,0,0,2.577,2.576,1.829,1.829,0,0,0-2.577-2.576Zm-.117.106h0Z"/><path class="cls-1" d="M20.414,51.586a2.828,2.828,0,0,1,4-4C25.519,48.69,21.519,52.69,20.414,51.586Z"/><path class="cls-3" d="M20.91,52.782a1.648,1.648,0,0,1-1.2-.489,3.828,3.828,0,0,1,5.414-5.414c.947.947.5,2.572-1.172,4.242A4.735,4.735,0,0,1,20.91,52.782Zm1.5-5.023a1.827,1.827,0,0,0-1.4,3,4.111,4.111,0,0,0,1.521-1.055,4.1,4.1,0,0,0,1.055-1.521A1.821,1.821,0,0,0,22.414,47.759Z"/></svg>